<svg id="Logo" xmlns="http://www.w3.org/2000/svg" height="100" width="100"  viewBox="0 0 516.8 342.39"><defs></defs><title>FEATHERS_UAE</title><path fill="#FFFFFF" d="M168.11,361.27H132.77V372h24.56v6.26H132.77V397h-7V355h42.29Z" transform="translate(-125.82 -125.82)"/><path fill="#FFFFFF" d="M232.92,397H189V355H231.3v6.26H196V372h24.56v6.26H196v12.4h37Z" transform="translate(-125.82 -125.82)"/><path fill="#FFFFFF" d="M444,467.33H414.41V439.09h28.46v4.21H419.09v7.26h16.53v4.21H419.09v8.35H444Z" transform="translate(-125.82 -125.82)"/><path fill="#FFFFFF" d="M302.78,397h-7.61l-4.83-9.38H262.09L257.26,397h-7.6L271.84,355h8.75ZM287,381.31,276.28,361l-10.81,20.32Z" transform="translate(-125.82 -125.82)"/><path fill="#FFFFFF" d="M401.67,467.33h-5.12L393.3,461h-19L371,467.33h-5.12l14.94-28.24h5.89ZM391,456.8l-7.19-13.68-7.28,13.68Z" transform="translate(-125.82 -125.82)"/><path fill="#FFFFFF" d="M365.72,361.27h-20V397h-6.95V361.27h-20V355h47Z" transform="translate(-125.82 -125.82)"/><path fill="#FFFFFF" d="M431.08,397h-6.95V378.3H390.54V397h-7V355h7v17h33.59V355h6.95Z" transform="translate(-125.82 -125.82)"/><path fill="#FFFFFF"	 d="M505,397H461.12V355h42.29v6.26H468.07V372h24.56v6.26H468.07v12.4h37Z" transform="translate(-125.82 -125.82)"/><path fill="#FFFFFF" d="M575.62,397h-8.09l-11.36-16H535v16h-7V355h33.08q6.6,0,10.37,3.56a12.7,12.7,0,0,1,3.76,9.65,11.94,11.94,0,0,1-3.07,8.57,13.27,13.27,0,0,1-7.81,3.83Zm-15.53-22.24q8,0,8-6.49,0-6.95-8.69-7H535v13.44Z" transform="translate(-125.82 -125.82)"/><path fill="#FFFFFF" d="M635.85,364.86a41.47,41.47,0,0,0-19-4.75q-6.42,0-9.84,1.51t-3.42,4.17q0,2.77,3.65,4a34.16,34.16,0,0,0,8.52,1.28q8.68.57,11.47.92,7.88,1.05,11.64,3.88a9.5,9.5,0,0,1,3.76,8.06,11.49,11.49,0,0,1-5.91,10.31q-5.9,3.65-17,3.65-16,0-25-7.07l3.82-5a39.85,39.85,0,0,0,21.2,6q7.35,0,11.41-2,3.88-2,3.88-5.39c0-2.67-1.7-4.44-5.1-5.33q-2.65-.69-14.36-1.45-10.36-.69-14.54-2.78a8.43,8.43,0,0,1-4.87-8.16c0-4,1.85-7.05,5.54-9.33s8.89-3.42,15.61-3.42q13.54,0,22.7,6.2Z" transform="translate(-125.82 -125.82)"/><path fill="#FFFFFF" d="M477.13,219.42v0h0v-5.05h-.26a49.55,49.55,0,0,0-44-44v-.27h-.21a49.49,49.49,0,0,0-44-44v-.26h-10.2v.25a49.48,49.48,0,0,0-44,43.94h-.27v.33a49.56,49.56,0,0,0-44,44H290v5h0v.11h0v5.06h.26a49.55,49.55,0,0,0,44,44v.26h.23a49.48,49.48,0,0,0,44,44V313h10.2v-.25a49.49,49.49,0,0,0,44-43.93h.27v-.31a49.55,49.55,0,0,0,43.95-44h.26v-5h0Zm-93.54-21.76a49.89,49.89,0,0,0-22.47-22.48,49.89,49.89,0,0,0,22.47-22.48A49.85,49.85,0,0,0,406,175.18,49.8,49.8,0,0,0,383.59,197.66Zm38.74-17a39.27,39.27,0,0,1-33.25,33.27A39.31,39.31,0,0,1,422.33,180.67ZM378.1,213.94a39.24,39.24,0,0,1-33.26-33.27A39.32,39.32,0,0,1,378.1,213.94ZM339.36,197a49.7,49.7,0,0,0,22.43,22.43,49.78,49.78,0,0,0-22.43,22.42,49.71,49.71,0,0,0-22.42-22.42A49.73,49.73,0,0,0,339.36,197Zm38.74,27.91a39.34,39.34,0,0,1-33.25,33.28A39.27,39.27,0,0,1,378.1,224.91Zm5.49,16.29A49.88,49.88,0,0,0,406,263.67a49.81,49.81,0,0,0-22.43,22.46,49.84,49.84,0,0,0-22.44-22.46A49.9,49.9,0,0,0,383.59,241.2Zm5.49-16.29a39.27,39.27,0,0,1,33.26,33.28A39.33,39.33,0,0,1,389.08,224.91Zm38.73,16.93a49.73,49.73,0,0,0-22.42-22.41A49.75,49.75,0,0,0,427.81,197a49.75,49.75,0,0,0,22.42,22.42A49.73,49.73,0,0,0,427.81,241.84Zm38.73-27.9a39.26,39.26,0,0,1-33.26-33.27A39.31,39.31,0,0,1,466.54,213.94Zm-44.2-44.25a39.33,39.33,0,0,1-33.26-33.28A39.28,39.28,0,0,1,422.34,169.69ZM378.1,136.41a39.34,39.34,0,0,1-33.25,33.28A39.28,39.28,0,0,1,378.1,136.41Zm-44.22,44.26a39.27,39.27,0,0,1-33.25,33.27A39.32,39.32,0,0,1,333.88,180.67Zm-33.25,44.24a39.28,39.28,0,0,1,33.26,33.28A39.33,39.33,0,0,1,300.63,224.91Zm44.21,44.23a39.34,39.34,0,0,1,33.26,33.28A39.26,39.26,0,0,1,344.84,269.14Zm44.24,33.28a39.33,39.33,0,0,1,33.25-33.29A39.24,39.24,0,0,1,389.08,302.42Zm44.21-44.23a39.27,39.27,0,0,1,33.25-33.28A39.32,39.32,0,0,1,433.29,258.19Z" transform="translate(-125.82 -125.82)"/><path fill="#FFFFFF" d="M353.6,457.18c0,7.22-5.46,11-14.88,11-9.74,0-15.51-3.41-15.51-11V438.89h5v18.29c0,5.05,3.81,7.82,10.48,7.82,6.35,0,9.85-2.77,9.85-7.82V438.89h5Z" transform="translate(-125.82 -125.82)"/></svg>